#N canvas 1282 23 632 1016 10;
#X declare -path grambilib~;
#X floatatom 482 276 5 0 1 0 - - - 0;
#X floatatom 532 274 5 0 1 0 - - - 0;
#X msg 482 301 az \$1;
#X msg 532 299 el \$1;
#X text 581 294 az and el: 0 to 1;
#X obj 425 114 noise~;
#X obj 468 140 phasor~ 0.1;
#X obj 425 164 grambipan~ 1 **;
#X obj 425 134 *~ 0;
#X obj 425 195 grambidec~ quad;
#X obj 429 276 noise~;
#X obj 425 224 dac~ 1 2 3 4;
#X text 530 195 mono \, stereo \, quad \, pent \, hex \, oct \, cube;
#X text 531 165 order: 1 \, 2 \, 3;
#N canvas 1443 23 471 1016 meta 0;
#X text 48 235 1st order: WXYZ;
#X text 47 273 3rd order: WXYUVPQ (horizontal / 2d only);
#X text 47 254 2nd order: WXYUV (horizontal/ 2d only);
#X text 46 102 Tumble: anticlockwise movement in vertical front-back plane (about y);
#X text 46 67 Tilt: anticlockwise movement in vertical left-right plane (about x);
#X text 48 171 x' = x * cos A - y * sin A \; w' = w \; y' = x * sin A * cos B + y * cos A * cos B - z * sin B \; z' = x * sin A * sin B + y * cos A * sin B + z * cos B;
#X text 47 150 Rotilt: rotation and tilt combined:;
#X text 48 301 http://www.york.ac.uk/inst/mustech/3d_audio/ambis2.htm;
#X text 47 319 http://www.blueripplesound.com/HOA;
#X text 47 34 Rotate: anticlockwise rotation to left in horizontal plane (about z);
#X restore 676 438 pd meta;
#X obj 9 75 noise~;
#X obj 52 101 phasor~ 0.1;
#X obj 9 95 *~ 0;
#X text 115 126 order: 1 \, 2 \, 3;
#X obj 9 156 grambidec~ pent;
#X obj 9 185 dac~ 1 2 3 4 5;
#X obj 9 125 grambipan~ 2 **;
#X text 420 40 [grambipan~] \, [grambiman~] \, [grambidec~];
#X obj 9 6 declare -path grambilib~;
#X obj 429 386 grambipan~ 1, f 20;
#X obj 429 307 *~ 0.2;
#X obj 429 444 dac~ 1 2, f 20;
#X obj 429 417 grambidec~ stereo, f 20;
#X obj 593 67 vsl 18 153 0 127 0 0 empty empty empty 0 -9 0 10 #fcfcfc #000000 #000000 0 1;
#X obj 593 228 / 127;
#X connect 0 0 2 0;
#X connect 1 0 3 0;
#X connect 2 0 24 0;
#X connect 3 0 24 0;
#X connect 5 0 8 0;
#X connect 6 0 7 1;
#X connect 7 0 9 0;
#X connect 7 1 9 1;
#X connect 7 2 9 2;
#X connect 7 3 9 3;
#X connect 8 0 7 0;
#X connect 9 0 11 0;
#X connect 9 1 11 1;
#X connect 9 2 11 2;
#X connect 9 3 11 3;
#X connect 10 0 25 0;
#X connect 15 0 17 0;
#X connect 16 0 21 1;
#X connect 17 0 21 0;
#X connect 19 0 20 0;
#X connect 19 1 20 1;
#X connect 19 2 20 2;
#X connect 19 3 20 3;
#X connect 19 4 20 4;
#X connect 21 0 19 0;
#X connect 21 1 19 1;
#X connect 21 2 19 2;
#X connect 21 3 19 3;
#X connect 21 4 19 4;
#X connect 24 0 27 0;
#X connect 24 1 27 1;
#X connect 24 2 27 2;
#X connect 24 3 27 3;
#X connect 25 0 24 0;
#X connect 27 0 26 0;
#X connect 27 1 26 1;
#X connect 28 0 29 0;
#X connect 29 0 0 0;
#X connect 29 0 1 0;
